<?xml version="1.0" standalone="no"?><!DOCTYPE svg PUBLIC "-//W3C//DTD SVG 1.1//EN" "http://www.w3.org/Graphics/SVG/1.1/DTD/svg11.dtd"><svg t="1748577514682" class="icon" viewBox="0 0 1067 1024" version="1.1" xmlns="http://www.w3.org/2000/svg" p-id="1552" xmlns:xlink="http://www.w3.org/1999/xlink" width="1em" height="1em"><path d="M464.941349 220.306286a69.339429 69.339429 0 1 1 134.582857 0.585143l-31.451429 123.611428a37.449143 37.449143 0 0 1-72.777143-0.292571l-30.354285-123.904zM249.535634 430.08a69.339429 69.339429 0 1 1 66.121143-117.248l92.598857 87.771429a37.449143 37.449143 0 0 1-35.766857 63.268571L249.535634 430.08z" fill="#FF6F4A" p-id="1553"></path><path d="M247.414491 157.915429a74.678857 74.678857 0 1 1 127.122286-74.386286L454.920777 298.788571a34.742857 34.742857 0 0 1-59.172571 34.669715l-148.333715-175.542857zM88.182491 581.558857A74.752 74.752 0 1 1 88.475063 434.322286l226.377143 39.716571a34.742857 34.742857 0 0 1-0.146286 68.534857l-226.523429 38.985143z" fill="#FCBE58" p-id="1554"></path><path d="M376.072777 942.372571a79.945143 79.945143 0 1 1-138.971428-77.165714L494.41792 498.541714a32.548571 32.548571 0 0 1 56.539429 31.378286l-174.811429 412.452571z" fill="#FF6F4A" p-id="1555"></path><path d="M695.926491 82.944a74.678857 74.678857 0 1 1 126.976 74.605714L674.349349 332.8a34.816 34.816 0 0 1-59.099429-34.669714l80.749714-215.186286zM978.843063 431.469714a74.752 74.752 0 1 1 0.877714 147.309715l-226.669714-38.034286a34.742857 34.742857 0 0 1-0.365714-68.534857l226.157714-40.740572zM823.341349 856.283429a74.752 74.752 0 1 1-127.195429 74.386285L615.835063 715.337143a34.742857 34.742857 0 0 1 59.172571-34.596572l148.333715 175.542858z" fill="#FCBE58" p-id="1556"></path><path d="M754.148206 311.588571a69.412571 69.412571 0 1 1 65.024 117.979429l-123.392 32.621714a37.522286 37.522286 0 0 1-35.108572-63.707428l93.476572-86.820572zM828.973349 608.768a69.412571 69.412571 0 1 1-66.340572 117.101714L670.180206 638.025143a37.449143 37.449143 0 0 1 35.84-63.341714l122.88 34.084571z" fill="#FF6F4A" p-id="1557"></path></svg>